<?xml version="1.0" encoding="UTF-8"?>
<!DOCTYPE svg PUBLIC "-//W3C//DTD SVG 1.1//EN" "http://www.w3.org/Graphics/SVG/1.1/DTD/svg11.dtd">
<svg xmlns="http://www.w3.org/2000/svg" version="1.1" width="500px" height="194px" style="shape-rendering:geometricPrecision; text-rendering:geometricPrecision; image-rendering:optimizeQuality; fill-rule:evenodd; clip-rule:evenodd" xmlns:xlink="http://www.w3.org/1999/xlink">
<g><path style="opacity:0.869" fill="#010101" d="M 338.5,8.5 C 340.226,14.7931 341.393,21.4598 342,28.5C 343.9,35.2138 348.4,38.7138 355.5,39C 361.196,39.1701 366.862,39.6701 372.5,40.5C 367.198,41.3295 361.864,41.8295 356.5,42C 347.533,42.8817 342.366,47.715 341,56.5C 340.829,61.8642 340.329,67.1975 339.5,72.5C 338.67,66.8624 338.17,61.1958 338,55.5C 337.393,48.8939 333.893,44.7272 327.5,43C 320.853,42.0565 314.186,41.2232 307.5,40.5C 314.522,39.7907 321.522,38.9574 328.5,38C 334.192,35.7941 337.359,31.6275 338,25.5C 338.499,19.8431 338.666,14.1764 338.5,8.5 Z"/></g>
<g><path style="opacity:0.919" fill="#000000" d="M 347.5,51.5 C 375.609,53.9307 401.276,63.4307 424.5,80C 446.129,102.795 444.129,123.462 418.5,142C 391.132,158.263 361.465,167.263 329.5,169C 305.052,170.358 280.718,169.358 256.5,166C 251.024,165.172 245.691,163.839 240.5,162C 282.189,167.465 323.189,164.131 363.5,152C 380.664,146.506 395.498,137.34 408,124.5C 419.848,106.273 417.348,90.1064 400.5,76C 384.633,64.0684 366.967,55.9018 347.5,51.5 Z"/></g>
<g><path style="opacity:0.91" fill="#010101" d="M 115.5,74.5 C 133.681,73.5294 140.515,81.8627 136,99.5C 131.445,106.016 125.279,108.35 117.5,106.5C 117.909,111.028 115.909,113.694 111.5,114.5C 106.667,113.496 104.167,110.496 104,105.5C 103.116,98.4183 103.449,91.4183 105,84.5C 107.081,79.5837 110.581,76.2504 115.5,74.5 Z M 120.5,88.5 C 125.012,88.8689 126.512,91.2022 125,95.5C 121.187,98.5886 118.687,97.7552 117.5,93C 117.557,90.7911 118.557,89.2911 120.5,88.5 Z"/></g>
<g><path style="opacity:0.914" fill="#000000" d="M 152.5,74.5 C 172.963,75.0838 178.963,84.7505 170.5,103.5C 172.856,111.645 169.856,114.812 161.5,113C 159.288,110.957 157.288,108.791 155.5,106.5C 154.445,113.231 150.779,115.398 144.5,113C 138.101,102.274 137.935,91.4408 144,80.5C 146.322,77.6047 149.155,75.6047 152.5,74.5 Z M 156.5,88.5 C 163.678,90.5152 164.178,93.5152 158,97.5C 152.733,95.2171 152.233,92.2171 156.5,88.5 Z"/></g>
<g><path style="opacity:0.92" fill="#000000" d="M 189.5,74.5 C 201.311,73.1488 208.811,78.1488 212,89.5C 213.113,96.7149 212.446,103.715 210,110.5C 206.793,114.36 203.126,115.027 199,112.5C 197.872,110.655 197.372,108.655 197.5,106.5C 195.167,106.5 192.833,106.5 190.5,106.5C 190.506,113.662 187.172,115.829 180.5,113C 174.011,102.686 173.845,92.1857 180,81.5C 182.529,78.1151 185.696,75.7818 189.5,74.5 Z M 193.5,88.5 C 196.869,89.5592 198.536,91.8925 198.5,95.5C 195.833,95.5 193.167,95.5 190.5,95.5C 189.909,92.3247 190.909,89.9913 193.5,88.5 Z"/></g>
<g><path style="opacity:0.903" fill="#000000" d="M 225.5,74.5 C 233.142,73.1021 239.642,75.1021 245,80.5C 246.004,83.9926 245.504,87.1592 243.5,90C 228.591,88.3522 227.924,90.3522 241.5,96C 245.5,101 245.5,106 241.5,111C 233.543,115.471 225.543,115.471 217.5,111C 212.212,102.605 214.545,99.2716 224.5,101C 225.877,102.241 227.21,102.408 228.5,101.5C 223.773,99.7192 219.606,97.0525 216,93.5C 212.793,83.9441 215.96,77.6107 225.5,74.5 Z"/></g>
<g><path style="opacity:0.916" fill="#010101" d="M 262.5,74.5 C 282.631,75.1379 289.797,85.1379 284,104.5C 274.866,115.412 264.532,116.746 253,108.5C 243.522,93.4502 246.689,82.1169 262.5,74.5 Z M 264.5,90.5 C 271.162,89.9973 273.662,92.9973 272,99.5C 268.171,103.663 264.837,103.329 262,98.5C 261.018,95.2253 261.851,92.5586 264.5,90.5 Z"/></g>
<g><path style="opacity:0.915" fill="#010101" d="M 302.5,74.5 C 320.633,73.8018 328.467,82.4684 326,100.5C 319.606,113.521 309.772,117.021 296.5,111C 288.1,103.186 286.267,94.0195 291,83.5C 294.045,79.4057 297.878,76.4057 302.5,74.5 Z M 304.5,90.5 C 310.297,89.4743 313.13,91.8076 313,97.5C 310.596,103.195 307.262,103.862 303,99.5C 302.068,96.1769 302.568,93.1769 304.5,90.5 Z"/></g>
<g><path style="opacity:0.917" fill="#000000" d="M 335.5,74.5 C 337.857,74.3367 340.19,74.5034 342.5,75C 345.902,78.9676 348.402,83.4676 350,88.5C 349.696,83.3097 351.196,78.8097 354.5,75C 357.588,74.1533 360.421,74.6533 363,76.5C 368.215,88.8291 367.382,100.662 360.5,112C 357.298,113.483 353.964,113.817 350.5,113C 347.433,109.703 345.267,105.869 344,101.5C 343.466,105.305 342.466,108.971 341,112.5C 338.333,113.833 335.667,113.833 333,112.5C 327.968,101.778 327.301,90.7785 331,79.5C 332.059,77.3408 333.559,75.6741 335.5,74.5 Z"/></g>
<g><path style="opacity:1" fill="#0df4aa" d="M 394.5,120.5 C 392.658,120.723 390.825,121.057 389,121.5C 386.718,120.71 384.552,119.71 382.5,118.5C 381.312,108.752 385.312,105.752 394.5,109.5C 398.401,113.33 398.401,116.996 394.5,120.5 Z"/></g>
<g><path style="opacity:0.769" fill="#25ecb5" d="M 382.5,118.5 C 384.552,119.71 386.718,120.71 389,121.5C 390.825,121.057 392.658,120.723 394.5,120.5C 389.984,124.353 385.984,123.686 382.5,118.5 Z"/></g>
</svg>
