<?xml version="1.0" encoding="UTF-8"?>
<!DOCTYPE svg PUBLIC "-//W3C//DTD SVG 1.1//EN" "http://www.w3.org/Graphics/SVG/1.1/DTD/svg11.dtd">
<svg xmlns="http://www.w3.org/2000/svg" version="1.1" width="1280px" height="1280px" style="shape-rendering:geometricPrecision; text-rendering:geometricPrecision; image-rendering:optimizeQuality; fill-rule:evenodd; clip-rule:evenodd" xmlns:xlink="http://www.w3.org/1999/xlink">
<g><path style="opacity:0.955" fill="#000000" d="M 190.5,340.5 C 423.834,340.333 657.167,340.5 890.5,341C 953.869,342.013 1015.2,353.68 1074.5,376C 1121.36,393.837 1161.86,421.003 1196,457.5C 1215.54,480.099 1228.21,506.099 1234,535.5C 1238.09,564.455 1234.09,592.122 1222,618.5C 1205.67,650.172 1182.84,676.339 1153.5,697C 1104.66,730.191 1050.99,752.524 992.5,764C 978.546,766.77 964.546,769.103 950.5,771C 934.751,771.969 919.084,773.302 903.5,775C 773.167,775.5 642.834,775.667 512.5,775.5C 512.991,829.584 512.491,883.584 511,937.5C 466.906,938.497 422.739,938.83 378.5,938.5C 378.168,855.596 378.502,772.763 379.5,690C 554.167,689.667 728.833,689.333 903.5,689C 951.148,686.014 995.482,672.681 1036.5,649C 1054.97,637.199 1070.47,622.365 1083,604.5C 1100.99,573.586 1100.99,542.586 1083,511.5C 1070.03,492.194 1053.53,476.694 1033.5,465C 986.088,438.729 935.088,425.729 880.5,426C 612.167,425.333 343.833,425.333 75.5,426C 66.6317,426.208 57.7984,426.708 49,427.5C 45.8634,426.055 45.6967,424.222 48.5,422C 80.1639,403.837 111.497,385.17 142.5,366C 158.403,357.216 174.403,348.716 190.5,340.5 Z"/></g>
<g><path style="opacity:0.741" fill="#000000" d="M 565.5,521.5 C 579.04,520.747 590.54,525.081 600,534.5C 603.176,539.025 604.509,544.025 604,549.5C 599.263,550.469 594.43,550.803 589.5,550.5C 589.443,542.197 585.443,537.03 577.5,535C 570.314,533.945 563.314,534.612 556.5,537C 550.398,542.042 550.065,547.375 555.5,553C 566.558,557.797 577.891,561.797 589.5,565C 605.557,573.275 608.89,585.108 599.5,600.5C 591.241,607.566 581.574,610.9 570.5,610.5C 558.539,610.875 548.039,607.208 539,599.5C 535.048,594.19 533.548,588.357 534.5,582C 538.5,581.333 542.5,581.333 546.5,582C 549.208,592.048 555.875,597.382 566.5,598C 572.281,598.512 577.948,597.846 583.5,596C 590.92,590.344 591.253,584.344 584.5,578C 571.553,574.128 558.886,569.462 546.5,564C 535.735,555.822 533.568,545.655 540,533.5C 546.996,526.139 555.496,522.139 565.5,521.5 Z"/></g>
<g><path style="opacity:0.76" fill="#000000" d="M 683.5,521.5 C 711.735,522.901 725.735,537.735 725.5,566C 726.924,584.156 719.924,597.823 704.5,607C 689.453,612.572 675.119,611.238 661.5,603C 650.751,593.264 645.751,581.098 646.5,566.5C 645.244,547.497 652.91,533.663 669.5,525C 674.224,523.506 678.891,522.339 683.5,521.5 Z M 681.5,534.5 C 698.064,533.574 707.564,541.241 710,557.5C 711.43,568.199 710.097,578.532 706,588.5C 698.916,596.485 690.082,599.318 679.5,597C 669.624,593.782 664.124,586.948 663,576.5C 661.662,565.908 662.662,555.574 666,545.5C 669.984,539.993 675.151,536.326 681.5,534.5 Z"/></g>
<g><path style="opacity:0.766" fill="#000000" d="M 806.5,521.5 C 835.469,522.469 849.802,537.469 849.5,566.5C 847.507,601.636 829.173,615.469 794.5,608C 783.608,604.043 776.442,596.543 773,585.5C 768.399,568.473 770.065,552.14 778,536.5C 785.44,527.365 794.94,522.365 806.5,521.5 Z M 804.5,534.5 C 818.827,533.013 828.327,539.013 833,552.5C 835.243,562.601 834.91,572.601 832,582.5C 824.596,597.245 813.096,601.412 797.5,595C 788.653,587.487 784.653,577.821 785.5,566C 784.666,554.824 788.333,545.491 796.5,538C 799.309,536.907 801.976,535.74 804.5,534.5 Z"/></g>
<g><path style="opacity:0.764" fill="#000000" d="M 188.5,523.5 C 205.542,523.09 222.542,523.59 239.5,525C 256.804,532.12 262.304,544.62 256,562.5C 251.348,570.091 244.515,574.591 235.5,576C 224.839,576.5 214.172,576.667 203.5,576.5C 203.5,587.167 203.5,597.833 203.5,608.5C 198.167,608.5 192.833,608.5 187.5,608.5C 187.175,580.093 187.509,551.759 188.5,523.5 Z M 203.5,535.5 C 214.222,535.125 224.889,535.625 235.5,537C 243.816,542.492 245.649,549.659 241,558.5C 238.592,560.956 235.759,562.789 232.5,564C 222.839,564.5 213.172,564.666 203.5,564.5C 203.5,554.833 203.5,545.167 203.5,535.5 Z"/></g>
<g><path style="opacity:0.807" fill="#000000" d="M 305.5,523.5 C 321.539,523.115 337.539,523.615 353.5,525C 367.712,530.249 373.546,540.416 371,555.5C 368.106,563.784 362.606,569.618 354.5,573C 360.791,582.415 366.958,591.915 373,601.5C 374.411,603.65 375.245,605.984 375.5,608.5C 370.156,608.666 364.823,608.499 359.5,608C 352.865,597.354 346.198,586.687 339.5,576C 332.842,575.5 326.175,575.334 319.5,575.5C 319.5,586.5 319.5,597.5 319.5,608.5C 314.833,608.5 310.167,608.5 305.5,608.5C 305.5,580.167 305.5,551.833 305.5,523.5 Z M 319.5,535.5 C 329.224,535.141 338.891,535.641 348.5,537C 356.371,541.146 358.537,547.312 355,555.5C 352.736,558.433 349.902,560.6 346.5,562C 337.582,563.414 328.582,563.914 319.5,563.5C 319.5,554.167 319.5,544.833 319.5,535.5 Z"/></g>
<g><path style="opacity:0.778" fill="#000000" d="M 446.5,523.5 C 451.099,523.2 455.599,523.533 460,524.5C 472.128,552.417 483.961,580.417 495.5,608.5C 490.167,608.5 484.833,608.5 479.5,608.5C 477.721,601.331 475.054,594.497 471.5,588C 459.167,587.333 446.833,587.333 434.5,588C 431.371,594.425 428.371,600.925 425.5,607.5C 420.544,608.494 415.544,608.827 410.5,608.5C 421.678,579.812 433.678,551.479 446.5,523.5 Z M 452.5,542.5 C 457.403,553.317 462.07,564.317 466.5,575.5C 457.475,575.832 448.475,575.498 439.5,574.5C 443.837,563.821 448.17,553.154 452.5,542.5 Z"/></g>
<g><path style="opacity:0.771" fill="#000000" d="M 897.5,523.5 C 902.511,523.334 907.511,523.501 912.5,524C 927.698,543.565 942.532,563.399 957,583.5C 957.5,563.503 957.667,543.503 957.5,523.5C 962.975,522.919 968.142,523.586 973,525.5C 973.824,552.876 973.658,580.209 972.5,607.5C 967.167,608.833 961.833,608.833 956.5,607.5C 942.14,588.307 927.974,568.974 914,549.5C 913.667,568.5 913.333,587.5 913,606.5C 908.142,608.414 902.975,609.081 897.5,608.5C 897.5,580.167 897.5,551.833 897.5,523.5 Z"/></g>
</svg>
